#!OML:ASF F:\VICON\USERDATA\INSTALL\Justin_Nancy\Justin_Nancy.ASF
:FULLY-SPECIFIED
:DEGREES
48
root -9.02251 16.7168 -19.6163 -1.41582 -10.0638 -1.29846
lowerback 6.38747 2.12427 -0.616819
upperback -1.34936 2.87559 1.85759
thorax -5.11119 1.47118 1.96466
lowerneck -16.7069 -3.69092 -9.69994
upperneck 20.901 -4.31644 7.46204
head 9.75986 -1.95107 3.65487
rclavicle -1.64494e-014 -1.90833e-014
rhumerus -29.5015 -13.2832 -76.5637
rradius 38.197
rwrist 0.86847
rhand -16.3284 12.8619
rfingers 7.12502
rthumb 9.88329 -16.8861
lclavicle -1.64494e-014 -1.90833e-014
lhumerus -43.665 16.1246 80.0923
lradius 15.3672
lwrist -21.5509
lhand -9.99414 25.7786
lfingers 7.12502
lthumb 15.9893 55.1387
rfemur 13.6285 6.21849 22.3784
rtibia 44.9928
rfoot 14.494 5.30874
rtoes 5.1885
lfemur -33.424 -0.970692 -19.8901
ltibia 35.7226
lfoot -1.50988 -7.24056
ltoes -2.76313
49
root -9.00551 16.7306 -19.3475 -1.71229 -10.0846 -1.35227
lowerback 6.6261 2.17821 -0.285584
upperback -1.2433 2.96864 1.74372
thorax -5.11582 1.5043 1.64369
lowerneck -16.382 -3.74231 -9.76142
upperneck 20.5791 -4.40748 7.54646
head 9.59836 -1.9932 3.6783
rclavicle -1.53064e-014 -2.38542e-015
rhumerus -30.1547 -13.6519 -76.5706
rradius 38.3418
rwrist 0.741393
rhand -16.467 12.8323
rfingers 7.12502
rthumb 9.7496 -16.922
lclavicle -1.53064e-014 -2.38542e-015
lhumerus -43.5519 15.6605 80.2775
lradius 16.08
lwrist -20.6109
lhand -9.92545 25.6033
lfingers 7.12502
lthumb 16.0554 54.9581
rfemur 11.8086 6.27946 22.3065
rtibia 48.7596
rfoot 15.7717 5.19684
rtoes 10.0645
lfemur -32.8658 -0.868329 -20.1831
ltibia 36.8374
lfoot -0.557854 -7.63884
ltoes 1.19354
50
root -8.98667 16.741 -19.0752 -2.06983 -10.1845 -0.900305
lowerback 6.77573 2.20853 -0.613593
upperback -1.08056 2.97577 1.6696
thorax -5.0437 1.5151 1.74719
lowerneck -16.5881 -3.48624 -10.0431
upperneck 20.8074 -4.0331 7.84181
head 9.69189 -1.80643 3.88658
rclavicle -4.63417e-015 6.75868e-015
rhumerus -30.6037 -13.5592 -76.5521
rradius 38.4327
rwrist 0.554529
rhand -16.7185 12.4484
rfingers 7.12502
rthumb 9.50696 -17.3171
lclavicle -4.63417e-015 6.75868e-015
lhumerus -43.4042 15.628 80.5334
lradius 16.6721
lwrist -19.7206
lhand -10.1599 25.953
lfingers 7.12502
lthumb 15.8297 55.3258
rfemur 10.0116 6.2623 21.5594
rtibia 52.3881
rfoot 15.6676 4.49637
rtoes 11.8286
lfemur -32.0974 -0.770426 -21.1308
ltibia 37.7342
lfoot -0.459745 -7.84353
ltoes 5.56823
51
root -8.96893 16.7676 -18.7974 -2.42313 -10.3133 -0.448377
lowerback 7.0025 2.20905 -1.02938
upperback -0.966676 2.93908 1.66717
thorax -5.0731 1.50803 1.9757
lowerneck -16.3762 -3.62015 -9.98955
upperneck 20.0624 -4.09914 7.33686
head 9.3881 -1.8863 3.67428
rclavicle -3.90736e-014 6.36111e-015
rhumerus -30.8665 -13.3909 -76.4866
rradius 38.1871
rwrist 0.497838
rhand -16.7019 12.2836
rfingers 7.12502
rthumb 9.52299 -17.4812
lclavicle -3.90736e-014 6.36111e-015
lhumerus -43.3866 16.2394 80.4142
lradius 17.1705
lwrist -19.4611
lhand -10.3847 25.5971
lfingers 7.12502
lthumb 15.6132 54.987
rfemur 8.18041 6.19728 20.8328
rtibia 55.8322
rfoot 14.3273 3.41806
rtoes 9.33542
lfemur -31.0619 -0.74336 -22.0588
ltibia 38.3485
lfoot -3.23293 -7.75964
ltoes 6.40951
52
root -8.95153 16.7925 -18.5343 -2.71268 -10.1668 0.217041
lowerback 7.17316 2.1416 -1.45083
upperback -0.82369 2.79614 1.39348
thorax -5.02015 1.44338 1.94096
lowerneck -16.4737 -3.61828 -9.80293
upperneck 19.7625 -4.0799 7.15575
head 9.29209 -1.87819 3.5757
rclavicle -4.22728e-014 4.77083e-015
rhumerus -30.88 -13.6773 -76.664
rradius 37.6559
rwrist 0.598736
rhand -16.0793 13.0154
rfingers 7.12502
rthumb 10.1237 -16.721
lclavicle -4.22728e-014 4.77083e-015
lhumerus -42.9033 15.8327 80.6964
lradius 17.8051
lwrist -18.1923
lhand -10.2415 25.385
lfingers 7.12502
lthumb 15.7511 54.7641
rfemur 6.13913 5.79963 19.8284
rtibia 59.1116
rfoot 12.4528 1.94609
rtoes 6.8813
lfemur -29.9465 -0.992441 -23.1863
ltibia 38.6981
lfoot -4.14683 -6.85439
ltoes 7.21291
53
root -8.93747 16.8202 -18.2832 -3.03593 -10.1085 1.14734
lowerback 7.25417 2.09863 -2.23193
upperback -0.552338 2.65361 1.1004
thorax -4.79802 1.38499 2.09386
lowerneck -16.8562 -3.6054 -9.76281
upperneck 19.6326 -4.00917 7.07457
head 9.30819 -1.8425 3.54566
rclavicle 2.11333e-014 -4.37326e-015
rhumerus -30.4988 -13.8207 -76.9413
rradius 36.9592
rwrist 0.852408
rhand -15.527 13.3586
rfingers 7.12502
rthumb 10.6564 -16.3512
lclavicle 2.11333e-014 -4.37326e-015
lhumerus -42.1164 15.237 81.2782
lradius 18.3974
lwrist -16.3503
lhand -10.3717 25.3016
lfingers 7.12502
lthumb 15.6257 54.6905
rfemur 3.98402 5.41843 18.4899
rtibia 62.1414
rfoot 10.5487 0.24329
rtoes 6.14425
lfemur -28.7424 -1.21672 -24.5506
ltibia 38.8454
lfoot -5.36353 -6.47152
ltoes 5.91407
54
root -8.92286 16.8465 -18.0339 -3.17931 -10.058 1.71508
lowerback 7.3851 2.0671 -2.78603
upperback -0.496471 2.55553 1.01428
thorax -4.82943 1.34907 2.32372
lowerneck -16.6915 -3.5561 -9.84534
upperneck 19.2945 -3.88876 6.94227
head 9.14917 -1.80666 3.52405
rclavicle 2.45685e-014 -4.77083e-015
rhumerus -30.4581 -13.4832 -77.1513
rradius 36.3544
rwrist 1.2176
rhand -16.1053 12.7466
rfingers 7.12502
rthumb 10.0986 -16.9911
lclavicle 2.45685e-014 -4.77083e-015
lhumerus -41.6296 14.9397 81.7336
lradius 18.7682
lwrist -15.033
lhand -10.8177 25.0437
lfingers 7.12502
lthumb 15.1961 54.4656
rfemur 1.6643 4.95597 17.5402
rtibia 64.8794
rfoot 9.07574 -1.47784
rtoes 6.50976
lfemur -27.7591 -1.66985 -25.4353
ltibia 38.9231
lfoot -6.1482 -5.97625
ltoes 6.31306
